<svg xmlns="http://www.w3.org/2000/svg" viewBox="0 0 400 300" width="406" height="306" class="illustration styles_illustrationTablet__1DWOa"><g id="_558_money_motivation_outline" data-name="#558_money_motivation_outline"><path d="M99.52,99.39l-3.69-4.24s.47-3.3-.18-4.25-2.73-2.2-3.16-2-.69,1.32-.69,1.32-2.62-2.42-3.26-1.71-2.89,6.69-1.33,9.27,9.52,9,9.52,9Z" fill="#ffc9b0"></path><path d="M96.73,107.79a1,1,0,0,1-.63-.22c-.83-.67-8.14-6.61-9.75-9.27-1.86-3.09.68-9.6,1.45-10.46a1.38,1.38,0,0,1,1-.46,4.57,4.57,0,0,1,2.62,1.21,1.83,1.83,0,0,1,.65-.59c1.22-.58,3.76,1.36,4.42,2.34s.55,3.22.4,4.49l3.39,3.91a1,1,0,0,1,.18,1l-2.78,7.4a1,1,0,0,1-.68.61A.75.75,0,0,1,96.73,107.79ZM89.11,89.47c-.67,1.34-2.16,5.94-1,7.8s5.59,5.68,8.22,7.86l2.08-5.53-3.29-3.8a1,1,0,0,1-.24-.79,9.16,9.16,0,0,0,0-3.55A6.15,6.15,0,0,0,92.92,90a2.35,2.35,0,0,0-.14.45,1,1,0,0,1-.68.72,1,1,0,0,1-1-.22A10.53,10.53,0,0,0,89.11,89.47Z" fill="#093f68"></path><path d="M93,99.23a1,1,0,0,1-.76-.35,4,4,0,0,1-.81-2.18,2.51,2.51,0,0,1-.92.37,1.78,1.78,0,0,1-1.42-.41c-1.14-1-.51-3.34,1.88-7a1,1,0,0,1,1.67,1.09,18,18,0,0,0-2.06,4.09,6.5,6.5,0,0,0,1.09-1.28,1,1,0,0,1,1.2-.4,1,1,0,0,1,.63,1.1c-.17,1-.2,2.76.26,3.3A1,1,0,0,1,93,99.23Zm-2.47-3.89h0Z" fill="#093f68"></path><path d="M261.73,97.15a121.92,121.92,0,0,1,16.45-3.73c1.81-.27,1.14,1.17.92,2.43-.27,1.54-.59,3.08-1,4.61s-.75,5.26-2.13,6a13.09,13.09,0,0,1-4.91.81c-1.42,0-3.09-.09-4.13-1.18C266.11,105.18,262.06,97.05,261.73,97.15Z" fill="#70cc40"></path><path d="M270.64,108.27a5.91,5.91,0,0,1-4.39-1.5,37.62,37.62,0,0,1-2.94-5c-.77-1.42-1.82-3.34-2.17-3.82a1,1,0,0,1-.37-.52,1,1,0,0,1,.67-1.25h0A122.44,122.44,0,0,1,278,92.44a2.14,2.14,0,0,1,1.93.48,2.66,2.66,0,0,1,.25,2.53c0,.19-.09.38-.12.57-.28,1.56-.6,3.13-1,4.67-.07.29-.14.68-.22,1.1-.48,2.59-1,4.8-2.41,5.55a13.3,13.3,0,0,1-5.34.92Zm-7.3-10.55c.42.71,1,1.71,1.73,3.11.9,1.66,2.28,4.18,2.63,4.56.63.65,1.69.93,3.38.87a12.84,12.84,0,0,0,4.47-.69c.67-.36,1.17-3,1.39-4.15.08-.46.16-.87.24-1.2.36-1.5.67-3,.94-4.55,0-.22.09-.44.14-.66s.09-.41.12-.6h-.05A120.42,120.42,0,0,0,263.34,97.72Zm-1.35.4Zm0,0Zm0,0Zm0,0h0Zm0,0Zm0,0Zm0,0Zm0,0Zm0,0Zm0,0Zm0,0Z" fill="#093f68"></path><path d="M258.27,139c-4.73-1.17-10.38-3.88-8.6-9.61,1.71-5.51,4.1-11,8.1-15.11a19.53,19.53,0,0,1,9.57-5.48c2.89-.67,7.29-1.12,10.18-.3,5.9,1.68,10.51,6.43,13.24,11.78,2.33,4.55,5.11,13,.94,17.28-3.45,3.55-10.46,2.88-15,2.93C270.57,140.57,264.3,140.49,258.27,139Z" fill="#70cc40"></path><path d="M280.53,141.52h-1.74c-.72,0-1.4,0-2,0-6.06.07-12.49,0-18.72-1.52h0c-3.1-.76-7.15-2.31-8.87-5.36a6.81,6.81,0,0,1-.45-5.52c2.15-6.91,4.8-11.83,8.34-15.51a20.42,20.42,0,0,1,10.06-5.75c3-.69,7.55-1.18,10.68-.29,5.63,1.6,10.69,6.08,13.86,12.29,1.08,2.1,6.17,12.87.77,18.42C289.56,141.21,284.78,141.52,280.53,141.52Zm-3.21-2h1.49c4.24,0,9.51.1,12.17-2.64,3.45-3.55,1.56-10.9-1.11-16.12-2.92-5.72-7.52-9.83-12.62-11.28-2.6-.73-6.74-.37-9.69.32a18.42,18.42,0,0,0-9.07,5.19c-3.32,3.44-5.82,8.12-7.87,14.71a4.82,4.82,0,0,0,.28,3.95c1.07,1.89,3.77,3.45,7.61,4.4,6,1.47,12.29,1.53,18.22,1.46Z" fill="#093f68"></path><path d="M161.28,239.27H100a1,1,0,0,1,0-2h60.26V215.89a1,1,0,0,1,1-1h36.78V194.82a1,1,0,0,1,1-1h32.58V171.66a1,1,0,0,1,1-1h80.69a1,1,0,0,1,0,2H233.64v22.16a1,1,0,0,1-1,1H200.06v20.07a1,1,0,0,1-1,1H162.28v21.38A1,1,0,0,1,161.28,239.27Z" fill="#093f68"></path><path d="M183,98l3.69-4.24s-.46-3.3.18-4.25,2.73-2.2,3.16-2,.69,1.32.69,1.32,2.63-2.42,3.26-1.71,2.89,6.69,1.33,9.27-9.52,9-9.52,9Z" fill="#ffc9b0"></path><path d="M185.75,106.39a1.17,1.17,0,0,1-.26,0,1,1,0,0,1-.67-.61L182,98.34a1,1,0,0,1,.18-1l3.39-3.9c-.15-1.27-.28-3.48.4-4.49.57-.84,3.15-3,4.42-2.34a1.81,1.81,0,0,1,.65.58,4.92,4.92,0,0,1,2.62-1.2,1.43,1.43,0,0,1,1,.46c.76.86,3.3,7.36,1.44,10.46-1.6,2.65-8.92,8.6-9.75,9.26A1,1,0,0,1,185.75,106.39Zm-1.64-8.2,2.09,5.54c2.62-2.18,7.18-6.14,8.22-7.86s-.37-6.44-1-7.8a10.11,10.11,0,0,0-2,1.49,1,1,0,0,1-1,.22,1,1,0,0,1-.68-.73,2.49,2.49,0,0,0-.14-.44,6.15,6.15,0,0,0-1.9,1.45,9.16,9.16,0,0,0,0,3.55,1,1,0,0,1-.24.79Zm5.81-9.71Z" fill="#093f68"></path><path d="M186.37,205.58l-12.79,1.56c-1.51-17.1-4-24.21-6.41-27-1.95-2.27-25.57-9.44-25.57-9.44l6.25-15.48c6.07,1.64,25.62,11.34,31.09,17.69C184.14,178.89,185.5,198.14,186.37,205.58Z" fill="#093f68"></path><path d="M173.58,208.14a1,1,0,0,1-.63-.22,1,1,0,0,1-.36-.69c-1.26-14.28-3.34-23.19-6.18-26.48-1.1-1.28-13.62-5.65-25.1-9.13a1,1,0,0,1-.63-1.33l6.24-15.49a1,1,0,0,1,1.19-.59c6.54,1.77,26.1,11.64,31.59,18,4.75,5.51,6.35,20.81,7.31,29.95.13,1.26.25,2.37.35,3.3a1,1,0,0,1-.87,1.11l-12.79,1.56ZM142.94,170c5.62,1.73,23.09,7.22,25,9.42,3.08,3.58,5.23,12.28,6.56,26.58l10.78-1.31c-.08-.71-.16-1.49-.25-2.34-.87-8.32-2.5-23.82-6.83-28.85-5.13-5.94-23.18-15-29.76-17.12Z" fill="#093f68"></path><path d="M173.58,207.14v8.75l21.47-4.24a.44.44,0,0,0,.1-.83l-9.77-6.47Z" fill="#68e1fd"></path><path d="M173.58,216.89a1,1,0,0,1-1-1v-8.75a1,1,0,0,1,.77-1l11.8-2.8a1,1,0,0,1,.78.14l9.73,6.45a1.44,1.44,0,0,1,.73,1.42,1.46,1.46,0,0,1-1.12,1.25l-21.49,4.25Zm1-9v6.75l18.93-3.74-8.32-5.52Z" fill="#093f68"></path><path d="M160,138.58l1,20.91-32.58,3-1.94-21.36L90.93,105.82l8.68-6.93,30.05,23.94c5.62-.18,21.71-.8,26.27-2.27L183,97.7l7.64,5.76S170.89,125.91,160,138.58Z" fill="#68e1fd"></path><path d="M128.49,163.45a1,1,0,0,1-.64-.23,1,1,0,0,1-.35-.68l-1.91-21-35.36-35a1,1,0,0,1,.08-1.49L99,98.11a1,1,0,0,1,1.25,0L130,121.82c12.83-.42,22.28-1.22,25.44-2.15l26.88-22.73a1,1,0,0,1,1.25,0l7.64,5.76a1,1,0,0,1,.39.7,1,1,0,0,1-.24.76c-.2.23-19.52,22.24-30.32,34.81l1,20.51a1,1,0,0,1-.91,1.05l-32.58,3ZM92.44,105.9l34.82,34.48a1.05,1.05,0,0,1,.29.62l1.85,20.37L160,158.58l-1-20a1,1,0,0,1,.24-.7c9.58-11.17,26.24-30.18,29.87-34.32L183,99l-26.42,22.35a1.14,1.14,0,0,1-.34.19c-4.56,1.47-20.08,2.11-26.54,2.31a1,1,0,0,1-.66-.21L99.61,100.17Z" fill="#093f68"></path><path d="M116.16,219.53s10.47-15.84,13.31-24.17.46-33,.46-33h15.18s4.35,19.8-1.38,34.41-17.58,27.72-17.58,27.72Z" fill="#093f68"></path><path d="M126.15,225.52a1.06,1.06,0,0,1-.45-.11l-10-5a1,1,0,0,1-.51-.64,1,1,0,0,1,.13-.81c.1-.16,10.42-15.83,13.19-23.94s.44-32.3.41-32.55a1,1,0,0,1,1-1.1h15.18a1,1,0,0,1,1,.79c.18.82,4.34,20.26-1.43,35s-17.65,27.9-17.77,28A1,1,0,0,1,126.15,225.52Zm-8.54-6.38,8.3,4.14c2.3-2.66,12-14.28,16.89-26.85s2.2-29.24,1.49-33H131c.43,5,2,24.77-.6,32.29C127.93,203,119.93,215.57,117.61,219.14Z" fill="#093f68"></path><path d="M116.16,219.53l-5.1,8.23,17.56,10.46a.62.62,0,0,0,.74-.92l-3.21-12.78Z" fill="#68e1fd"></path><path d="M128.86,239.27a1.77,1.77,0,0,1-.63-.13l-.12-.06-17.57-10.46a1,1,0,0,1-.46-.62,1,1,0,0,1,.13-.77l5.1-8.23a1,1,0,0,1,1.3-.36l10,5a1,1,0,0,1,.52.66l3.17,12.64a1.58,1.58,0,0,1-.18,1.74A1.63,1.63,0,0,1,128.86,239.27Zm-.32-1.39Zm-16.1-10.46,15.76,9.38-2.91-11.59-8.76-4.38Z" fill="#093f68"></path><polygon points="150.38 121.76 146.73 153.38 135.53 122.94 150.38 121.76" fill="#fff"></polygon><path d="M146.73,154.38a1,1,0,0,1-.94-.65l-11.2-30.45a1,1,0,0,1,.1-.88,1,1,0,0,1,.76-.46l14.85-1.18a1,1,0,0,1,1.07,1.11l-3.65,31.63a1,1,0,0,1-.87.88Zm-9.81-30.55,9.3,25.26,3-26.24Z" fill="#093f68"></path><path d="M139.94,118.24h6.82a0,0,0,0,1,0,0v3.92a2.89,2.89,0,0,1-2.89,2.89h-1a2.89,2.89,0,0,1-2.89-2.89v-3.92A0,0,0,0,1,139.94,118.24Z" transform="translate(-10.42 13.47) rotate(-5.19)" fill="#ffc9b0"></path><path d="M142.87,126.1a3.88,3.88,0,0,1-2.48-.9,3.92,3.92,0,0,1-1.39-2.64l-.35-3.91a1,1,0,0,1,.9-1.09l6.79-.61a1,1,0,0,1,.73.22,1,1,0,0,1,.35.68l.36,3.91a3.91,3.91,0,0,1-3.53,4.23h0l-1,.09Zm1.29-1.11h0Zm-3.43-5.52.26,2.91a1.91,1.91,0,0,0,.68,1.28,1.85,1.85,0,0,0,1.38.43l1-.09a1.9,1.9,0,0,0,1.72-2.06l-.27-2.91Z" fill="#093f68"></path><path d="M119.83,106.18a7.4,7.4,0,0,1-1.21-1.56A61,61,0,0,1,110.9,87a13.31,13.31,0,0,1-.57-5.45c.52-3.33,3.14-5.87,5.62-8.15,1.33-1.23,2.09-1.18,3-2.79a15.62,15.62,0,0,1,3.77-4c5.64-4.53,13.43-5.08,20.66-4.9,3.09.08,6.28.28,9,1.68s5,4.27,4.7,7.34c3.59-.34,5.55-.15,6.72,3.7,1.81,6,1.51,22.83,1.51,22.83l-4.28.13-31.87,7.64c-2.07.49-7.16,2.67-9,1.48A2.89,2.89,0,0,1,119.83,106.18Z" fill="#725858"></path><path d="M121.82,107.9a3.66,3.66,0,0,1-2.07-.51,4,4,0,0,1-.61-.48,8.82,8.82,0,0,1-1.36-1.74,62.26,62.26,0,0,1-7.85-17.89,14.26,14.26,0,0,1-.59-5.86c.56-3.53,3.12-6.15,5.94-8.74a10.08,10.08,0,0,1,1.39-1.07,3.89,3.89,0,0,0,1.47-1.49,16.9,16.9,0,0,1,4-4.24c6-4.83,14.16-5.3,21.31-5.12,3.17.08,6.5.29,9.47,1.78,2.56,1.29,5,3.94,5.26,7.16,3.1-.19,5.41.33,6.67,4.49,1.83,6,1.57,22.44,1.55,23.14a1,1,0,0,1-1,1l-4.19.13-31.76,7.61c-.46.11-1.09.31-1.82.54A21.14,21.14,0,0,1,121.82,107.9Zm19.3-45.17c-6.18,0-12.81.77-17.73,4.71a15.29,15.29,0,0,0-3.53,3.7,6,6,0,0,1-2.07,2.13,8.26,8.26,0,0,0-1.16.88c-2.54,2.34-4.86,4.68-5.31,7.58a12.68,12.68,0,0,0,.54,5,59.9,59.9,0,0,0,7.6,17.31,7.08,7.08,0,0,0,1.05,1.37h0a2.88,2.88,0,0,0,.34.27c1,.65,4.38-.44,6.21-1,.77-.25,1.44-.46,2-.59l31.86-7.63.2,0,3.34-.1c0-3.63,0-16.63-1.49-21.57-1-3.15-2.24-3.31-5.67-3a1,1,0,0,1-.8-.29,1,1,0,0,1-.29-.8c.27-2.8-2-5.26-4.15-6.36-2.6-1.31-5.68-1.49-8.62-1.57Q142.28,62.73,141.12,62.73Z" fill="#093f68"></path><ellipse cx="160.57" cy="98.96" rx="6.62" ry="5.71" transform="translate(-16.72 34.57) rotate(-11.69)" fill="#ffc9b0"></ellipse><path d="M160.18,105.71c-3.44,0-6.44-2.1-7.08-5.21a6.26,6.26,0,0,1,1.27-5.15,8.15,8.15,0,0,1,4.84-3c4.11-.85,8.07,1.4,8.82,5s-2,7.25-6.11,8.11A8.64,8.64,0,0,1,160.18,105.71Zm.78-11.5a7,7,0,0,0-1.35.14A6.16,6.16,0,0,0,156,96.57a4.29,4.29,0,0,0-.9,3.53c.53,2.54,3.43,4.09,6.46,3.47s5.08-3.21,4.55-5.75A5,5,0,0,0,161,94.21Z" fill="#093f68"></path><path d="M145.6,121a20.14,20.14,0,0,1-20.25-7.88c-4.92-6.83-4.37-16.88,2.53-22.34,1.47-1.17,3.16-2,4.66-3.17,3.23-2.43,4.66-5.49,6.18-9.07.39-.91.14-.85.86-.32s1.42,1.15,2.09,1.7a14.48,14.48,0,0,1,3.72,4.62,16.45,16.45,0,0,0,6.37-6.42,1.31,1.31,0,0,1,.33-.44,1.18,1.18,0,0,1,1.1,0c4.8,1.56,5.29,7,6.15,11.19l1.78,8.57A20,20,0,0,1,145.6,121Z" fill="#ffc9b0"></path><path d="M141.7,122.44a21.35,21.35,0,0,1-17.16-8.69c-5.46-7.57-4.24-18.21,2.72-23.71a29.48,29.48,0,0,1,2.57-1.77c.74-.48,1.44-.92,2.11-1.42,3-2.24,4.31-5,5.86-8.66.07-.16.11-.29.15-.38a1.23,1.23,0,0,1,.81-.89,1.2,1.2,0,0,1,1.14.33l.27.2c.52.38,1,.82,1.55,1.25l.59.49a15.73,15.73,0,0,1,3.45,4,15.54,15.54,0,0,0,5.12-5.51,2.26,2.26,0,0,1,.6-.75,2.09,2.09,0,0,1,2-.2c4.84,1.57,5.79,6.54,6.55,10.54.09.48.18.94.27,1.4l1.78,8.57A21,21,0,0,1,145.81,122h0A20.4,20.4,0,0,1,141.7,122.44Zm3.9-1.4h0Zm-6.15-41.62c-1.55,3.62-3.07,6.59-6.31,9-.73.55-1.49,1-2.23,1.5S129.25,91,128.5,91.6c-6.13,4.86-7.18,14.26-2.34,21a19.27,19.27,0,0,0,19.24,7.48,19,19,0,0,0,14.74-22.42l-1.78-8.57c-.09-.46-.18-.94-.28-1.42-.73-3.84-1.49-7.82-5.2-9l-.21-.06,0,.06a17.52,17.52,0,0,1-6.76,6.82,1,1,0,0,1-.78.08,1,1,0,0,1-.6-.5A13.54,13.54,0,0,0,141,80.74l-.61-.51C140.11,80,139.78,79.68,139.45,79.42Z" fill="#093f68"></path><circle cx="140.93" cy="98.46" r="1.85" fill="#093f68"></circle><circle cx="155.65" cy="95.92" r="1.85" fill="#093f68"></circle><path d="M144.69,105.67a1,1,0,0,1-1-1,1,1,0,0,1,1-1,9.63,9.63,0,0,0,2.21-.37,16,16,0,0,0-2.24-3.44,1,1,0,0,1,1.55-1.26c1.4,1.72,3,4,2.72,5.36a1.42,1.42,0,0,1-.77,1,9.87,9.87,0,0,1-3.41.72Zm2.25-2.08h0Z" fill="#093f68"></path><path d="M130.25,94.26a2,2,0,0,1-.18-4l8.78-.81a2,2,0,0,1,.37,4l-8.78.81Z" fill="#093f68"></path><path d="M146.91,91.83a2,2,0,0,1-.44-4l8.61-1.94a2,2,0,1,1,.88,3.9l-8.61,1.94A1.61,1.61,0,0,1,146.91,91.83Z" fill="#093f68"></path><path d="M133.14,105.08a3,3,0,0,1-2.91-2.37l-1.11-5.39a1,1,0,0,1,.14-.75,1,1,0,0,1,.63-.43l12.57-2.6a1,1,0,0,1,1.18.78l1.12,5.39a3,3,0,0,1-2.31,3.51h0l-8.71,1.8A3.05,3.05,0,0,1,133.14,105.08Zm-1.86-7.18.91,4.41a.94.94,0,0,0,.42.61.91.91,0,0,0,.73.14l8.7-1.8a1,1,0,0,0,.76-1.14l-.92-4.42Zm11,4.34h0Z" fill="#093f68"></path><path d="M148.74,101.86a3,3,0,0,1-2.9-2.38l-1.12-5.39a1,1,0,0,1,.15-.75,1,1,0,0,1,.63-.43l12.57-2.6a1,1,0,0,1,.75.15,1,1,0,0,1,.43.63l1.11,5.39a3,3,0,0,1-2.31,3.51h0l-8.7,1.8A2.48,2.48,0,0,1,148.74,101.86Zm-1.85-7.19.91,4.41a1,1,0,0,0,.42.62.93.93,0,0,0,.73.13l8.7-1.79a1,1,0,0,0,.75-1.15l-.91-4.42Zm11,4.34h0Z" fill="#093f68"></path><path d="M119.72,103.29a1,1,0,0,1-.2-2l11-2.27a1,1,0,0,1,1.18.78,1,1,0,0,1-.77,1.18l-11,2.27Z" fill="#093f68"></path><path d="M125.72,112a6.12,6.12,0,0,1-7.37-4.3c-2.68-7.62,5.78-5,5.78-5" fill="#ffc9b0"></path><path d="M124.25,113.17a7,7,0,0,1-6.84-5.15c-.89-2.51-.76-4.38.38-5.55,2-2.07,6.17-.84,6.64-.69a1,1,0,0,1-.6,1.91c-.89-.28-3.63-.84-4.6.17-.71.73-.36,2.3.06,3.5,1.7,4.81,6,3.72,6.17,3.67a1,1,0,0,1,1.22.7A1,1,0,0,1,126,113,6.71,6.71,0,0,1,124.25,113.17Z" fill="#093f68"></path><path d="M149,108.74l-8.1-1.52s-1.83,5.58,1.34,7.8C146.43,117.94,149,108.74,149,108.74Z" fill="#093f68"></path><rect x="141.83" y="125.37" width="5.05" height="3.97" rx="1.47" transform="translate(-10.94 13.59) rotate(-5.19)" fill="#f56132"></rect><path d="M143.35,130.44a2.45,2.45,0,0,1-2.45-2.24l-.1-1a2.47,2.47,0,0,1,2.24-2.68l2.1-.19a2.47,2.47,0,0,1,2.68,2.23l.1,1a2.47,2.47,0,0,1-2.24,2.68l-2.1.19Zm2-4.16h-.05l-2.1.19a.48.48,0,0,0-.32.17.47.47,0,0,0-.11.34l.1,1a.43.43,0,0,0,.16.31.45.45,0,0,0,.34.11l2.11-.19h0a.46.46,0,0,0,.42-.51l-.09-1A.47.47,0,0,0,145.37,126.28Z" fill="#093f68"></path><polygon points="147.84 140.92 146.73 153.38 143.01 142.57 143.1 129.47 145.98 129.21 147.84 140.92" fill="#f56132"></polygon><path d="M146.73,154.38a1,1,0,0,1-.95-.67l-3.71-10.82a.76.76,0,0,1,0-.33l.08-13.09a1,1,0,0,1,.91-1l2.88-.27a1,1,0,0,1,1.08.84l1.86,11.72a.65.65,0,0,1,0,.24l-1.12,12.46a1,1,0,0,1-.87.91Zm-2.71-12,2.13,6.22.69-7.66-1.7-10.67-1,.1Z" fill="#093f68"></path><path d="M189.48,97.83a1,1,0,0,1-.65-.25,1,1,0,0,1-.11-1.41c.47-.53.43-2.28.27-3.29a1,1,0,0,1,1.83-.71,5.68,5.68,0,0,0,1.08,1.28,17.76,17.76,0,0,0-2.06-4.08,1,1,0,0,1,.29-1.39,1,1,0,0,1,1.38.29c2.39,3.65,3,6,1.88,7a1.74,1.74,0,0,1-1.42.41,2.49,2.49,0,0,1-.92-.36,4,4,0,0,1-.81,2.18A1,1,0,0,1,189.48,97.83Z" fill="#093f68"></path><rect x="242.13" y="163.94" width="26.98" height="7.72" rx="2.19" fill="#ffbc0e"></rect><path d="M266.92,172.66h-22.6a3.19,3.19,0,0,1-3.19-3.19v-3.34a3.19,3.19,0,0,1,3.19-3.19h22.6a3.19,3.19,0,0,1,3.19,3.19v3.34A3.19,3.19,0,0,1,266.92,172.66Zm-22.6-7.72a1.19,1.19,0,0,0-1.19,1.19v3.34a1.2,1.2,0,0,0,1.19,1.19h22.6a1.19,1.19,0,0,0,1.19-1.19v-3.34a1.19,1.19,0,0,0-1.19-1.19Z" fill="#093f68"></path><rect x="240.25" y="156.22" width="26.98" height="7.72" rx="2.19" fill="#ffbc0e"></rect><path d="M265.05,164.94h-22.6a3.2,3.2,0,0,1-3.2-3.19v-3.34a3.2,3.2,0,0,1,3.2-3.19h22.6a3.19,3.19,0,0,1,3.19,3.19v3.34A3.19,3.19,0,0,1,265.05,164.94Zm-22.6-7.72a1.19,1.19,0,0,0-1.2,1.19v3.34a1.2,1.2,0,0,0,1.2,1.19h22.6a1.2,1.2,0,0,0,1.19-1.19v-3.34a1.19,1.19,0,0,0-1.19-1.19Z" fill="#093f68"></path><rect x="245.39" y="148.5" width="26.98" height="7.72" rx="2.19" fill="#ffbc0e"></rect><path d="M270.18,157.22h-22.6a3.19,3.19,0,0,1-3.19-3.19v-3.34a3.19,3.19,0,0,1,3.19-3.19h22.6a3.19,3.19,0,0,1,3.19,3.19V154A3.19,3.19,0,0,1,270.18,157.22Zm-22.6-7.72a1.19,1.19,0,0,0-1.19,1.19V154a1.19,1.19,0,0,0,1.19,1.19h22.6a1.19,1.19,0,0,0,1.19-1.19v-3.34a1.19,1.19,0,0,0-1.19-1.19Z" fill="#093f68"></path><rect x="240.25" y="140.78" width="26.98" height="7.72" rx="2.19" fill="#ffbc0e"></rect><path d="M265.05,149.5h-22.6a3.2,3.2,0,0,1-3.2-3.19V143a3.2,3.2,0,0,1,3.2-3.19h22.6a3.19,3.19,0,0,1,3.19,3.19v3.34A3.19,3.19,0,0,1,265.05,149.5Zm-22.6-7.72a1.2,1.2,0,0,0-1.2,1.19v3.34a1.19,1.19,0,0,0,1.2,1.19h22.6a1.19,1.19,0,0,0,1.19-1.19V143a1.2,1.2,0,0,0-1.19-1.19Z" fill="#093f68"></path><rect x="277.82" y="163.94" width="26.98" height="7.72" rx="2.19" fill="#ffbc0e"></rect><path d="M302.61,172.66H280a3.19,3.19,0,0,1-3.19-3.19v-3.34a3.19,3.19,0,0,1,3.19-3.19h22.6a3.19,3.19,0,0,1,3.19,3.19v3.34A3.19,3.19,0,0,1,302.61,172.66ZM280,164.94a1.19,1.19,0,0,0-1.19,1.19v3.34a1.19,1.19,0,0,0,1.19,1.19h22.6a1.19,1.19,0,0,0,1.19-1.19v-3.34a1.19,1.19,0,0,0-1.19-1.19Z" fill="#093f68"></path><rect x="275.94" y="156.22" width="26.98" height="7.72" rx="2.19" fill="#ffbc0e"></rect><path d="M300.73,164.94h-22.6a3.19,3.19,0,0,1-3.19-3.19v-3.34a3.19,3.19,0,0,1,3.19-3.19h22.6a3.19,3.19,0,0,1,3.19,3.19v3.34A3.19,3.19,0,0,1,300.73,164.94Zm-22.6-7.72a1.19,1.19,0,0,0-1.19,1.19v3.34a1.2,1.2,0,0,0,1.19,1.19h22.6a1.19,1.19,0,0,0,1.19-1.19v-3.34a1.19,1.19,0,0,0-1.19-1.19Z" fill="#093f68"></path><rect x="276.08" y="148.5" width="26.98" height="7.72" rx="2.19" fill="#ffbc0e"></rect><path d="M300.87,157.22h-22.6a3.19,3.19,0,0,1-3.19-3.19v-3.34a3.19,3.19,0,0,1,3.19-3.19h22.6a3.19,3.19,0,0,1,3.19,3.19V154A3.19,3.19,0,0,1,300.87,157.22Zm-22.6-7.72a1.19,1.19,0,0,0-1.19,1.19V154a1.19,1.19,0,0,0,1.19,1.19h22.6a1.19,1.19,0,0,0,1.19-1.19v-3.34a1.19,1.19,0,0,0-1.19-1.19Z" fill="#093f68"></path><rect x="275.94" y="140.78" width="26.98" height="7.72" rx="2.19" fill="#ffbc0e"></rect><path d="M300.73,149.5h-22.6a3.19,3.19,0,0,1-3.19-3.19V143a3.19,3.19,0,0,1,3.19-3.19h22.6a3.19,3.19,0,0,1,3.19,3.19v3.34A3.19,3.19,0,0,1,300.73,149.5Zm-22.6-7.72a1.2,1.2,0,0,0-1.19,1.19v3.34a1.19,1.19,0,0,0,1.19,1.19h22.6a1.19,1.19,0,0,0,1.19-1.19V143a1.19,1.19,0,0,0-1.19-1.19Z" fill="#093f68"></path><path d="M273.9,104.35a8.12,8.12,0,0,1,3.71.27,2.76,2.76,0,0,1,1.82,2.94,1.14,1.14,0,0,1-.46.71,1.47,1.47,0,0,1-.58.19,64.73,64.73,0,0,1-7.46,1c-1.79.12-6.32.78-6.52-2.16-.18-2.6,2.22-2.26,3.94-2.51S272.05,104.51,273.9,104.35Z" fill="#093f68"></path><path d="M268.4,110.56a6.1,6.1,0,0,1-3.94-1.07,3.05,3.05,0,0,1-1-2.17c-.21-3.14,2.48-3.36,3.93-3.49.3,0,.59,0,.87-.08a32.71,32.71,0,0,1,3.51-.28c.7,0,1.4-.06,2.1-.12h0a8.91,8.91,0,0,1,4.17.35,3.71,3.71,0,0,1,2.41,4.09,2.16,2.16,0,0,1-.88,1.32,2.74,2.74,0,0,1-.95.34,66.25,66.25,0,0,1-7.58,1l-.52,0C269.88,110.5,269.16,110.56,268.4,110.56Zm5.59-5.21c-.73.06-1.46.09-2.19.12a32,32,0,0,0-3.3.25c-.32,0-.65.08-1,.11-1.9.16-2.18.33-2.1,1.35a1,1,0,0,0,.36.79c.91.78,3.27.59,4.54.48l.55,0a62.56,62.56,0,0,0,7.35-.93l.22,0s0,0,0-.11c.17-.69-.49-1.47-1.22-1.77a7.31,7.31,0,0,0-3.24-.2Z" fill="#093f68"></path><path d="M271.31,133.05v-1.33c-.48-.13-.95-.23-1.4-.39a3.92,3.92,0,0,1-2.79-3.86h2.6a2.05,2.05,0,0,0,1.58,1.92v-3.52c-.52-.15-1-.29-1.55-.46a3.43,3.43,0,0,1-1.5-.86,2.92,2.92,0,0,1-.84-1.63,4.11,4.11,0,0,1,.16-2.25,3.75,3.75,0,0,1,2.28-2.26,10.93,10.93,0,0,1,1.31-.34l.15,0v-1.76h2.43v.17c0,.51,0,1,0,1.51,0,.12,0,.16.16.19a5,5,0,0,1,2.26,1,3.67,3.67,0,0,1,1.29,2.26c0,.24.06.48.09.73h-2.64a1.83,1.83,0,0,0-1.14-1.67v3.28l.28.07a9.25,9.25,0,0,1,2.07.66,3,3,0,0,1,1.79,2.5,3.89,3.89,0,0,1-.68,2.86,4,4,0,0,1-2,1.45c-.48.17-1,.28-1.51.42v1.29Zm2.44-6.68v3.06a2.22,2.22,0,0,0,1.07-.48,1.34,1.34,0,0,0-.06-2.11A9.39,9.39,0,0,0,273.75,126.37Zm-2.45-3.13v-2.95a9.82,9.82,0,0,0-.92.47,1.28,1.28,0,0,0,.08,2.13C270.72,123,271,123.12,271.3,123.24Z" fill="#093f68"></path><path d="M240.53,114.93a1,1,0,0,1-1-.79c-1.17-5.59-4.77-5.67-4.92-5.67a1,1,0,0,1-1-.88,1,1,0,0,1,.73-1.09c5.1-1.36,5-5.24,5-5.41a1,1,0,0,1,2-.21c.85,5.24,4.6,5.12,5,5.09a1,1,0,0,1,.2,2c-4.5.53-5,5.83-5,6.06a1,1,0,0,1-.94.91Zm-3-7.58a7.65,7.65,0,0,1,2.89,3.2,8.27,8.27,0,0,1,2.7-3.39,6.63,6.63,0,0,1-2.68-2.69A7.79,7.79,0,0,1,237.53,107.35Z" fill="#dfeaef"></path><path d="M252.2,88.8a1,1,0,0,1-1-.79c-.9-4.28-3.61-4.36-3.72-4.36a1,1,0,0,1-1-.88,1,1,0,0,1,.73-1.09c3.89-1,3.82-4,3.82-4.1a1,1,0,0,1,.9-1,1,1,0,0,1,1.09.83c.64,4,3.46,3.9,3.78,3.88a1,1,0,0,1,1.07.91,1,1,0,0,1-.88,1.08c-3.41.4-3.81,4.47-3.82,4.65a1,1,0,0,1-.94.91Zm-2-6.24a6.28,6.28,0,0,1,1.91,2.1,6.72,6.72,0,0,1,1.78-2.22,5.56,5.56,0,0,1-1.75-1.79A6.43,6.43,0,0,1,250.19,82.56Z" fill="#dfeaef"></path><path d="M302.92,112.08a1,1,0,0,1-1-.79c-1.57-7.44-6.41-7.53-6.62-7.53a1,1,0,0,1-.26-2c6.8-1.82,6.64-7,6.63-7.25a1,1,0,0,1,.89-1,1,1,0,0,1,1.09.83c1.16,7.13,6.53,6.8,6.76,6.78a1,1,0,0,1,1.07.9,1,1,0,0,1-.87,1.09c-6,.71-6.69,7.76-6.72,8.06a1,1,0,0,1-.93.91Zm-4.35-9.51a10.78,10.78,0,0,1,4.17,5,10.43,10.43,0,0,1,4.09-5.21,8.28,8.28,0,0,1-4-4.07A9.51,9.51,0,0,1,298.57,102.57Z" fill="#dfeaef"></path></g></svg>